<?xml version="1.0" standalone="no"?>
<!DOCTYPE svg PUBLIC "-//W3C//DTD SVG 1.1//EN"
"http://www.w3.org/Graphics/SVG/1.1/DTD/svg11.dtd">

<svg width="298" height="364" view_box="0 0 298 364"
xmlns="http://www.w3.org/2000/svg"
xmlns:link="http://www.w3.org/1999/xlink">\n\n<desc>Généré par Mocodo 2.3.7 le Tue, 11 May 2021 09:24:56</desc>

<rect id="frame" x="0" y="0" width="298" height="364" fill="#ffffbf" stroke="none" stroke-width="0"/>

<!-- Association has -->
<line x1="134" y1="195" x2="134" y2="77" stroke="#66bd63" stroke-width="2"/>
<text x="139.0" y="136" fill="#d73027" font-family="Verdana" font-size="12">1,N</text>
<line x1="45" y1="77" x2="134" y2="77" stroke="#66bd63" stroke-width="2"/>
<text x="75" y="94.0" fill="#d73027" font-family="Verdana" font-size="12">1,N</text>
<g id="association-has">
	<path d="M 138 52 a 14 14 90 0 1 14 14 V 77 h -36 V 66 a 14 14 90 0 1 14 -14" fill="#a6d96a" stroke="#a6d96a" stroke-width="0"/>
	<path d="M 152 77.0 v 11 a 14 14 90 0 1 -14 14 H 130 a 14 14 90 0 1 -14 -14 V 77.0 H 36" fill="#d9ef8b" stroke="#d9ef8b" stroke-width="0"/>
	<rect x="116" y="52" width="36" height="50" fill="none" rx="14" stroke="#66bd63" stroke-width="2"/>
	<line x1="116" y1="77" x2="152" y2="77" stroke="#66bd63" stroke-width="1"/>
	<text x="123" y="69.7" fill="#000000" font-family="Verdana" font-size="12">has</text>
</g>

<!-- Association has_results -->
<line x1="247" y1="77" x2="247" y2="195" stroke="#66bd63" stroke-width="2"/>
<text x="252.0" y="162" fill="#d73027" font-family="Verdana" font-size="12">0,N</text>
<line x1="247" y1="313" x2="247" y2="195" stroke="#66bd63" stroke-width="2"/>
<text x="252.0" y="263" fill="#d73027" font-family="Verdana" font-size="12">1,1</text>
<g id="association-has_results">
	<path d="M 275 170 a 14 14 90 0 1 14 14 V 195 h -84 V 184 a 14 14 90 0 1 14 -14" fill="#a6d96a" stroke="#a6d96a" stroke-width="0"/>
	<path d="M 289 195.0 v 11 a 14 14 90 0 1 -14 14 H 219 a 14 14 90 0 1 -14 -14 V 195.0 H 84" fill="#d9ef8b" stroke="#d9ef8b" stroke-width="0"/>
	<rect x="205" y="170" width="84" height="50" fill="none" rx="14" stroke="#66bd63" stroke-width="2"/>
	<line x1="205" y1="195" x2="289" y2="195" stroke="#66bd63" stroke-width="1"/>
	<text x="212" y="187.7" fill="#000000" font-family="Verdana" font-size="12">has_results</text>
</g>

<!-- Association has1 -->
<line x1="134" y1="195" x2="45" y2="195" stroke="#66bd63" stroke-width="2"/>
<text x="68" y="212.0" fill="#d73027" font-family="Verdana" font-size="12">1,N</text>
<line x1="45" y1="313" x2="45" y2="195" stroke="#66bd63" stroke-width="2"/>
<text x="50.0" y="263" fill="#d73027" font-family="Verdana" font-size="12">1,N</text>
<g id="association-has1">
	<path d="M 49 170 a 14 14 90 0 1 14 14 V 195 h -36 V 184 a 14 14 90 0 1 14 -14" fill="#a6d96a" stroke="#a6d96a" stroke-width="0"/>
	<path d="M 63 195.0 v 11 a 14 14 90 0 1 -14 14 H 41 a 14 14 90 0 1 -14 -14 V 195.0 H 36" fill="#d9ef8b" stroke="#d9ef8b" stroke-width="0"/>
	<rect x="27" y="170" width="36" height="50" fill="none" rx="14" stroke="#66bd63" stroke-width="2"/>
	<line x1="27" y1="195" x2="63" y2="195" stroke="#66bd63" stroke-width="1"/>
	<text x="34" y="187.7" fill="#000000" font-family="Verdana" font-size="12">has</text>
</g>

<!-- Association has2 -->
<line x1="134" y1="195" x2="134" y2="313" stroke="#66bd63" stroke-width="2"/>
<text x="139.0" y="263" fill="#d73027" font-family="Verdana" font-size="12">0,N</text>
<line x1="247" y1="313" x2="134" y2="313" stroke="#66bd63" stroke-width="2"/>
<text x="198" y="330.0" fill="#d73027" font-family="Verdana" font-size="12">1,1</text>
<g id="association-has2">
	<path d="M 138 288 a 14 14 90 0 1 14 14 V 313 h -36 V 302 a 14 14 90 0 1 14 -14" fill="#a6d96a" stroke="#a6d96a" stroke-width="0"/>
	<path d="M 152 313.0 v 11 a 14 14 90 0 1 -14 14 H 130 a 14 14 90 0 1 -14 -14 V 313.0 H 36" fill="#d9ef8b" stroke="#d9ef8b" stroke-width="0"/>
	<rect x="116" y="288" width="36" height="50" fill="none" rx="14" stroke="#66bd63" stroke-width="2"/>
	<line x1="116" y1="313" x2="152" y2="313" stroke="#66bd63" stroke-width="1"/>
	<text x="123" y="305.7" fill="#000000" font-family="Verdana" font-size="12">has</text>
</g>

<!-- Entity difficulty -->
<g id="entity-difficulty">
	<g id="frame-difficulty">
		<rect x="9" y="271" width="72" height="25" fill="#fdae61" stroke="#fdae61" stroke-width="0"/>
		<rect x="9" y="296.0" width="72" height="59" fill="#fee08b" stroke="#fee08b" stroke-width="0"/>
		<rect x="9" y="271" width="72" height="84" fill="none" stroke="#f46d43" stroke-width="2"/>
		<line x1="9" y1="296" x2="81" y2="296" stroke="#f46d43" stroke-width="1"/>
	</g>
	<text x="19" y="288.7" fill="#000000" font-family="Verdana" font-size="12">difficulty</text>
	<text x="14" y="313.8" fill="#000000" font-family="Verdana" font-size="12">title</text>
	<line x1="14" y1="316" x2="38" y2="316" stroke="#000000" stroke-width="1"/>
	<text x="14" y="330.8" fill="#000000" font-family="Verdana" font-size="12">color</text>
	<text x="14" y="347.8" fill="#000000" font-family="Verdana" font-size="12">coefficient</text>
</g>

<!-- Entity theme -->
<g id="entity-theme">
	<g id="frame-theme">
		<rect x="20" y="43" width="50" height="25" fill="#fdae61" stroke="#fdae61" stroke-width="0"/>
		<rect x="20" y="68.0" width="50" height="43" fill="#fee08b" stroke="#fee08b" stroke-width="0"/>
		<rect x="20" y="43" width="50" height="68" fill="none" stroke="#f46d43" stroke-width="2"/>
		<line x1="20" y1="68" x2="70" y2="68" stroke="#f46d43" stroke-width="1"/>
	</g>
	<text x="25" y="60.7" fill="#000000" font-family="Verdana" font-size="12">theme</text>
	<text x="25" y="85.8" fill="#000000" font-family="Verdana" font-size="12">title</text>
	<line x1="25" y1="88" x2="49" y2="88" stroke="#000000" stroke-width="1"/>
	<text x="25" y="102.8" fill="#000000" font-family="Verdana" font-size="12">color</text>
</g>

<!-- Entity game -->
<g id="entity-game">
	<g id="frame-game">
		<rect x="95" y="144" width="78" height="25" fill="#fdae61" stroke="#fdae61" stroke-width="0"/>
		<rect x="95" y="169.0" width="78" height="77" fill="#fee08b" stroke="#fee08b" stroke-width="0"/>
		<rect x="95" y="144" width="78" height="102" fill="none" stroke="#f46d43" stroke-width="2"/>
		<line x1="95" y1="169" x2="173" y2="169" stroke="#f46d43" stroke-width="1"/>
	</g>
	<text x="116" y="161.7" fill="#000000" font-family="Verdana" font-size="12">game</text>
	<text x="100" y="186.7" fill="#000000" font-family="Verdana" font-size="12">title</text>
	<line x1="100" y1="189" x2="124" y2="189" stroke="#000000" stroke-width="1"/>
	<text x="100" y="203.8" fill="#000000" font-family="Verdana" font-size="12">description</text>
	<text x="100" y="220.8" fill="#000000" font-family="Verdana" font-size="12">color</text>
	<text x="100" y="237.8" fill="#000000" font-family="Verdana" font-size="12">rule</text>
</g>

<!-- Entity user -->
<g id="entity-user">
	<g id="frame-user">
		<rect x="209" y="9" width="76" height="25" fill="#fdae61" stroke="#fdae61" stroke-width="0"/>
		<rect x="209" y="34.0" width="76" height="111" fill="#fee08b" stroke="#fee08b" stroke-width="0"/>
		<rect x="209" y="9" width="76" height="136" fill="none" stroke="#f46d43" stroke-width="2"/>
		<line x1="209" y1="34" x2="285" y2="34" stroke="#f46d43" stroke-width="1"/>
	</g>
	<text x="233" y="26.7" fill="#000000" font-family="Verdana" font-size="12">user</text>
	<text x="214" y="51.7" fill="#000000" font-family="Verdana" font-size="12">first_name</text>
	<line x1="214" y1="54" x2="280" y2="54" stroke="#000000" stroke-width="1"/>
	<text x="214" y="68.7" fill="#000000" font-family="Verdana" font-size="12">last_name</text>
	<text x="214" y="85.8" fill="#000000" font-family="Verdana" font-size="12">username</text>
	<text x="214" y="102.8" fill="#000000" font-family="Verdana" font-size="12">password</text>
	<text x="214" y="119.8" fill="#000000" font-family="Verdana" font-size="12">role</text>
	<text x="214" y="136.8" fill="#000000" font-family="Verdana" font-size="12">avatar</text>
</g>

<!-- Entity result -->
<g id="entity-result">
	<g id="frame-result">
		<rect x="224" y="271" width="46" height="25" fill="#fdae61" stroke="#fdae61" stroke-width="0"/>
		<rect x="224" y="296.0" width="46" height="59" fill="#fee08b" stroke="#fee08b" stroke-width="0"/>
		<rect x="224" y="271" width="46" height="84" fill="none" stroke="#f46d43" stroke-width="2"/>
		<line x1="224" y1="296" x2="270" y2="296" stroke="#f46d43" stroke-width="1"/>
	</g>
	<text x="229" y="288.7" fill="#000000" font-family="Verdana" font-size="12">result</text>
	<text x="229" y="313.8" fill="#000000" font-family="Verdana" font-size="12">title</text>
	<line x1="229" y1="316" x2="253" y2="316" stroke="#000000" stroke-width="1"/>
	<text x="229" y="330.8" fill="#000000" font-family="Verdana" font-size="12">date</text>
	<text x="229" y="347.8" fill="#000000" font-family="Verdana" font-size="12">point</text>
</g>
</svg>