<?xml version="1.0" standalone="no"?>
<!DOCTYPE svg PUBLIC "-//W3C//DTD SVG 1.1//EN"
"http://www.w3.org/Graphics/SVG/1.1/DTD/svg11.dtd">

<svg width="472" height="229" view_box="0 0 472 229"
xmlns="http://www.w3.org/2000/svg"
xmlns:link="http://www.w3.org/1999/xlink">\n\n<desc>Généré par Mocodo 2.3.7 le Mon, 10 May 2021 05:03:12</desc>

<rect id="frame" x="0" y="0" width="472" height="229" fill="#ffffbf" stroke="none" stroke-width="0"/>

<!-- Association has -->
<line x1="424" y1="77" x2="146" y2="195" stroke="#66bd63" stroke-width="2"/>
<text x="358" y="88.8788138167" fill="#d73027" font-family="Verdana" font-size="12">0,N</text>
<line x1="146" y1="77" x2="146" y2="195" stroke="#66bd63" stroke-width="2"/>
<text x="151.0" y="128" fill="#d73027" font-family="Verdana" font-size="12">0,N</text>
<g id="association-has">
	<path d="M 150 170 a 14 14 90 0 1 14 14 V 195 h -36 V 184 a 14 14 90 0 1 14 -14" fill="#a6d96a" stroke="#a6d96a" stroke-width="0"/>
	<path d="M 164 195.0 v 11 a 14 14 90 0 1 -14 14 H 142 a 14 14 90 0 1 -14 -14 V 195.0 H 36" fill="#d9ef8b" stroke="#d9ef8b" stroke-width="0"/>
	<rect x="128" y="170" width="36" height="50" fill="none" rx="14" stroke="#66bd63" stroke-width="2"/>
	<line x1="128" y1="195" x2="164" y2="195" stroke="#66bd63" stroke-width="1"/>
	<text x="135" y="187.7" fill="#000000" font-family="Verdana" font-size="12">has</text>
</g>

<!-- Association has_results -->
<line x1="51" y1="77" x2="51" y2="195" stroke="#66bd63" stroke-width="2"/>
<text x="56.0" y="162" fill="#d73027" font-family="Verdana" font-size="12">1,1</text>
<line x1="330" y1="77" x2="51" y2="195" stroke="#66bd63" stroke-width="2"/>
<text x="280" y="82.0404998932" fill="#d73027" font-family="Verdana" font-size="12">0,N</text>
<g id="association-has_results">
	<path d="M 79 170 a 14 14 90 0 1 14 14 V 195 h -84 V 184 a 14 14 90 0 1 14 -14" fill="#a6d96a" stroke="#a6d96a" stroke-width="0"/>
	<path d="M 93 195.0 v 11 a 14 14 90 0 1 -14 14 H 23 a 14 14 90 0 1 -14 -14 V 195.0 H 84" fill="#d9ef8b" stroke="#d9ef8b" stroke-width="0"/>
	<rect x="9" y="170" width="84" height="50" fill="none" rx="14" stroke="#66bd63" stroke-width="2"/>
	<line x1="9" y1="195" x2="93" y2="195" stroke="#66bd63" stroke-width="1"/>
	<text x="16" y="187.7" fill="#000000" font-family="Verdana" font-size="12">has_results</text>
</g>

<!-- Association has1 -->
<line x1="424" y1="77" x2="239" y2="195" stroke="#66bd63" stroke-width="2"/>
<text x="358" y="98.7876291354" fill="#d73027" font-family="Verdana" font-size="12">0,N</text>
<line x1="239" y1="77" x2="239" y2="195" stroke="#66bd63" stroke-width="2"/>
<text x="244.0" y="136" fill="#d73027" font-family="Verdana" font-size="12">0,N</text>
<g id="association-has1">
	<path d="M 243 170 a 14 14 90 0 1 14 14 V 195 h -36 V 184 a 14 14 90 0 1 14 -14" fill="#a6d96a" stroke="#a6d96a" stroke-width="0"/>
	<path d="M 257 195.0 v 11 a 14 14 90 0 1 -14 14 H 235 a 14 14 90 0 1 -14 -14 V 195.0 H 36" fill="#d9ef8b" stroke="#d9ef8b" stroke-width="0"/>
	<rect x="221" y="170" width="36" height="50" fill="none" rx="14" stroke="#66bd63" stroke-width="2"/>
	<line x1="221" y1="195" x2="257" y2="195" stroke="#66bd63" stroke-width="1"/>
	<text x="228" y="187.7" fill="#000000" font-family="Verdana" font-size="12">has</text>
</g>

<!-- Association has2 -->
<line x1="424" y1="77" x2="330" y2="195" stroke="#66bd63" stroke-width="2"/>
<text x="358" y="123.903567443" fill="#d73027" font-family="Verdana" font-size="12">0,N</text>
<line x1="330" y1="77" x2="330" y2="195" stroke="#66bd63" stroke-width="2"/>
<text x="335.0" y="136" fill="#d73027" font-family="Verdana" font-size="12">1,1</text>
<g id="association-has2">
	<path d="M 334 170 a 14 14 90 0 1 14 14 V 195 h -36 V 184 a 14 14 90 0 1 14 -14" fill="#a6d96a" stroke="#a6d96a" stroke-width="0"/>
	<path d="M 348 195.0 v 11 a 14 14 90 0 1 -14 14 H 326 a 14 14 90 0 1 -14 -14 V 195.0 H 36" fill="#d9ef8b" stroke="#d9ef8b" stroke-width="0"/>
	<rect x="312" y="170" width="36" height="50" fill="none" rx="14" stroke="#66bd63" stroke-width="2"/>
	<line x1="312" y1="195" x2="348" y2="195" stroke="#66bd63" stroke-width="1"/>
	<text x="319" y="187.7" fill="#000000" font-family="Verdana" font-size="12">has</text>
</g>

<!-- Entity difficulty -->
<g id="entity-difficulty">
	<g id="frame-difficulty">
		<rect x="203" y="35" width="72" height="25" fill="#fdae61" stroke="#fdae61" stroke-width="0"/>
		<rect x="203" y="60.0" width="72" height="59" fill="#fee08b" stroke="#fee08b" stroke-width="0"/>
		<rect x="203" y="35" width="72" height="84" fill="none" stroke="#f46d43" stroke-width="2"/>
		<line x1="203" y1="60" x2="275" y2="60" stroke="#f46d43" stroke-width="1"/>
	</g>
	<text x="213" y="52.7" fill="#000000" font-family="Verdana" font-size="12">difficulty</text>
	<text x="208" y="77.8" fill="#000000" font-family="Verdana" font-size="12">title</text>
	<line x1="208" y1="80" x2="232" y2="80" stroke="#000000" stroke-width="1"/>
	<text x="208" y="94.8" fill="#000000" font-family="Verdana" font-size="12">color</text>
	<text x="208" y="111.8" fill="#000000" font-family="Verdana" font-size="12">coefficient</text>
</g>

<!-- Entity theme -->
<g id="entity-theme">
	<g id="frame-theme">
		<rect x="121" y="43" width="50" height="25" fill="#fdae61" stroke="#fdae61" stroke-width="0"/>
		<rect x="121" y="68.0" width="50" height="43" fill="#fee08b" stroke="#fee08b" stroke-width="0"/>
		<rect x="121" y="43" width="50" height="68" fill="none" stroke="#f46d43" stroke-width="2"/>
		<line x1="121" y1="68" x2="171" y2="68" stroke="#f46d43" stroke-width="1"/>
	</g>
	<text x="126" y="60.7" fill="#000000" font-family="Verdana" font-size="12">theme</text>
	<text x="126" y="85.8" fill="#000000" font-family="Verdana" font-size="12">title</text>
	<line x1="126" y1="88" x2="150" y2="88" stroke="#000000" stroke-width="1"/>
	<text x="126" y="102.8" fill="#000000" font-family="Verdana" font-size="12">color</text>
</g>

<!-- Entity game -->
<g id="entity-game">
	<g id="frame-game">
		<rect x="385" y="18" width="78" height="25" fill="#fdae61" stroke="#fdae61" stroke-width="0"/>
		<rect x="385" y="43.0" width="78" height="93" fill="#fee08b" stroke="#fee08b" stroke-width="0"/>
		<rect x="385" y="18" width="78" height="118" fill="none" stroke="#f46d43" stroke-width="2"/>
		<line x1="385" y1="43" x2="463" y2="43" stroke="#f46d43" stroke-width="1"/>
	</g>
	<text x="406" y="35.7" fill="#000000" font-family="Verdana" font-size="12">game</text>
	<text x="390" y="60.7" fill="#000000" font-family="Verdana" font-size="12">title</text>
	<line x1="390" y1="63" x2="414" y2="63" stroke="#000000" stroke-width="1"/>
	<text x="390" y="77.8" fill="#000000" font-family="Verdana" font-size="12">category</text>
	<text x="390" y="94.8" fill="#000000" font-family="Verdana" font-size="12">description</text>
	<text x="390" y="111.8" fill="#000000" font-family="Verdana" font-size="12">color</text>
	<text x="390" y="128.8" fill="#000000" font-family="Verdana" font-size="12">rule</text>
</g>

<!-- Entity user -->
<g id="entity-user">
	<g id="frame-user">
		<rect x="13" y="9" width="76" height="25" fill="#fdae61" stroke="#fdae61" stroke-width="0"/>
		<rect x="13" y="34.0" width="76" height="111" fill="#fee08b" stroke="#fee08b" stroke-width="0"/>
		<rect x="13" y="9" width="76" height="136" fill="none" stroke="#f46d43" stroke-width="2"/>
		<line x1="13" y1="34" x2="89" y2="34" stroke="#f46d43" stroke-width="1"/>
	</g>
	<text x="37" y="26.7" fill="#000000" font-family="Verdana" font-size="12">user</text>
	<text x="18" y="51.7" fill="#000000" font-family="Verdana" font-size="12">first_name</text>
	<line x1="18" y1="54" x2="84" y2="54" stroke="#000000" stroke-width="1"/>
	<text x="18" y="68.7" fill="#000000" font-family="Verdana" font-size="12">last_name</text>
	<text x="18" y="85.8" fill="#000000" font-family="Verdana" font-size="12">username</text>
	<text x="18" y="102.8" fill="#000000" font-family="Verdana" font-size="12">password</text>
	<text x="18" y="119.8" fill="#000000" font-family="Verdana" font-size="12">role</text>
	<text x="18" y="136.8" fill="#000000" font-family="Verdana" font-size="12">avatar</text>
</g>

<!-- Entity result -->
<g id="entity-result">
	<g id="frame-result">
		<rect x="307" y="35" width="46" height="25" fill="#fdae61" stroke="#fdae61" stroke-width="0"/>
		<rect x="307" y="60.0" width="46" height="59" fill="#fee08b" stroke="#fee08b" stroke-width="0"/>
		<rect x="307" y="35" width="46" height="84" fill="none" stroke="#f46d43" stroke-width="2"/>
		<line x1="307" y1="60" x2="353" y2="60" stroke="#f46d43" stroke-width="1"/>
	</g>
	<text x="312" y="52.7" fill="#000000" font-family="Verdana" font-size="12">result</text>
	<text x="312" y="77.8" fill="#000000" font-family="Verdana" font-size="12">title</text>
	<line x1="312" y1="80" x2="336" y2="80" stroke="#000000" stroke-width="1"/>
	<text x="312" y="94.8" fill="#000000" font-family="Verdana" font-size="12">date</text>
	<text x="312" y="111.8" fill="#000000" font-family="Verdana" font-size="12">point</text>
</g>
</svg>